<svg xmlns="http://www.w3.org/2000/svg" width="188.637" height="90.018" viewBox="0 0 188.637 90.018">
  <g id="Ellipse_1" data-name="Ellipse 1" transform="translate(142.637)" fill="rgba(255,179,0,0)" stroke="#ffb300" stroke-width="2">
    <circle cx="23" cy="23" r="23" stroke="none"/>
    <circle cx="23" cy="23" r="22" fill="none"/>
  </g>
  <text id="SA" transform="matrix(0.819, 0.574, -0.574, 0.819, 163.641, 5.272)" fill="#fff" font-size="20" font-family="SegoeUI, Segoe UI"><tspan x="0" y="22">SA</tspan></text>
  <g id="cannon-svgrepo-com" transform="translate(-131 -277.991)">
    <g id="Group_2" data-name="Group 2" transform="translate(227.437 297.557)">
      <g id="Group_1" data-name="Group 1">
        <path id="Path_1" data-name="Path 1" d="M456.033,118.368l-7.37-27.56a2.508,2.508,0,0,0-1.8-1.694,3.28,3.28,0,0,0-.887-.122,2.906,2.906,0,0,0-1.735.558l-4.692,3.415a3.363,3.363,0,0,1-1.567.6l-4.187.514,7.191,26.889,4.03-1.1a3.6,3.6,0,0,1,1.717-.041l5.959,1.321a2.974,2.974,0,0,0,2.581-.587A2.117,2.117,0,0,0,456.033,118.368Z" transform="translate(-433.8 -88.991)" fill="#ffb300"/>
      </g>
    </g>
    <g id="Group_4" data-name="Group 4" transform="translate(131 304.131)">
      <g id="Group_3" data-name="Group 3">
        <path id="Path_2" data-name="Path 2" d="M93.767,112.9,23.99,122.661a19.04,19.04,0,0,0-13.192,7.9,18.147,18.147,0,0,0-3.329,12.267l-4.59,1.028c-.09.02-.177.047-.263.073A3.609,3.609,0,0,0,.094,148.2a3.692,3.692,0,0,0,3.611,2.812,3.809,3.809,0,0,0,.832-.092l.06-.013,4.928-1.1a18.527,18.527,0,0,0,5.79,6.562c0-.081,0-.161,0-.241,0-16.806,14-30.479,31.219-30.479A31.246,31.246,0,0,1,75.805,145.53l23.88-7.43Z" transform="translate(0 -112.902)" fill="#ffb300"/>
      </g>
    </g>
    <g id="Group_6" data-name="Group 6" transform="translate(153.424 320.743)">
      <g id="Group_5" data-name="Group 5">
        <path id="Path_3" data-name="Path 3" d="M112.686,192a23.633,23.633,0,1,0,23.633,23.633A23.66,23.66,0,0,0,112.686,192Zm0,36.049A12.416,12.416,0,1,1,125.1,215.633,12.43,12.43,0,0,1,112.686,228.049Z" transform="translate(-89.053 -192)" fill="#ffb300"/>
      </g>
    </g>
    <g id="Group_8" data-name="Group 8" transform="translate(169.669 283.689)">
      <g id="Group_7" data-name="Group 7" transform="translate(0 54.197)">
        <path id="Path_4" data-name="Path 4" d="M172.723,268.558c-3.922,0-7.112,2.707-7.112,6.035s3.191,6.035,7.112,6.035,7.112-2.707,7.112-6.035S176.645,268.558,172.723,268.558Z" transform="translate(-165.611 -268.558)" fill="#ffb300"/>
      </g>
    </g>
  </g>
</svg>
